<?xml version="1.0" encoding="UTF-8" standalone="no"?>
<!-- Created with Inkscape (http://www.inkscape.org/) -->

<svg
   xmlns:dc="http://purl.org/dc/elements/1.1/"
   xmlns:cc="http://creativecommons.org/ns#"
   xmlns:rdf="http://www.w3.org/1999/02/22-rdf-syntax-ns#"
   xmlns:svg="http://www.w3.org/2000/svg"
   xmlns="http://www.w3.org/2000/svg"
   xmlns:xlink="http://www.w3.org/1999/xlink"
   xmlns:sodipodi="http://sodipodi.sourceforge.net/DTD/sodipodi-0.dtd"
   xmlns:inkscape="http://www.inkscape.org/namespaces/inkscape"
   width="284.62543mm"
   height="62.603775mm"
   viewBox="0 0 284.62543 62.603775"
   version="1.1"
   id="svg8"
   inkscape:version="0.92.5 (2060ec1f9f, 2020-04-08)"
   sodipodi:docname="Logo.svg">
  <defs
     id="defs2">
    <linearGradient
       inkscape:collect="always"
       id="linearGradient1501">
      <stop
         style="stop-color:#00f152;stop-opacity:0.45098037"
         offset="0"
         id="stop1497" />
      <stop
         style="stop-color:#0c34c6;stop-opacity:0.71764708"
         offset="1"
         id="stop1499" />
    </linearGradient>
    <linearGradient
       id="linearGradient1570"
       inkscape:collect="always">
      <stop
         id="stop1566"
         offset="0"
         style="stop-color:#ffffff;stop-opacity:0.2596685" />
      <stop
         id="stop1568"
         offset="1"
         style="stop-color:#ffffff;stop-opacity:0;" />
    </linearGradient>
    <linearGradient
       inkscape:collect="always"
       id="linearGradient7344">
      <stop
         style="stop-color:#1a1a1a;stop-opacity:0"
         offset="0"
         id="stop7340" />
      <stop
         id="stop7350"
         offset="0.72852939"
         style="stop-color:#1a1a1a;stop-opacity:0.46961325" />
      <stop
         id="stop7348"
         offset="0.82906592"
         style="stop-color:#1a1a1a;stop-opacity:0.74509805" />
      <stop
         id="stop7346"
         offset="0.89026999"
         style="stop-color:#1a1a1a;stop-opacity:0.79558009" />
      <stop
         style="stop-color:#1a1a1a;stop-opacity:1"
         offset="1"
         id="stop7342" />
    </linearGradient>
    <linearGradient
       id="linearGradient1261"
       inkscape:collect="always">
      <stop
         id="stop1257"
         offset="0"
         style="stop-color:#1a1a1a;stop-opacity:0" />
      <stop
         id="stop1259"
         offset="1"
         style="stop-color:#1a1a1a;stop-opacity:0.95477384" />
    </linearGradient>
    <inkscape:path-effect
       only_selected="false"
       apply_with_weight="true"
       apply_no_weight="true"
       helper_size="0"
       steps="2"
       weight="33.333333"
       is_visible="true"
       id="path-effect1186"
       effect="bspline" />
    <clipPath
       clipPathUnits="userSpaceOnUse"
       id="clipPath2009">
      <path
         inkscape:connector-curvature="0"
         style="opacity:0.99800002;fill:#000000;stroke-width:0.99999797"
         d="m 681.63988,10.283382 c -7.71184,-0.7675535 -13.57792,-7.5883288 -13.17382,-15.3178565 0.32428,-6.2024155 4.18857,-11.3334265 10.03959,-13.3305875 1.09543,-0.373911 3.35606,-0.794747 4.27472,-0.795774 0.35996,-4.5e-4 0.63145,-0.106126 0.82219,-0.320218 0.79425,-0.891403 2.58622,-0.978854 4.57226,-0.223129 l 1.29762,0.493785 1.582,-1.586922 1.582,-1.586916 -0.67522,-0.66267 -0.67519,-0.662669 -0.82383,0.813583 -0.82381,0.813584 -5.6039,-5.602391 -5.6039,-5.602412 3.06459,-3.064571 3.06459,-3.064578 5.6043,5.602803 5.60429,5.602814 -0.82137,0.83003 -0.8214,0.830043 0.67599,0.663419 0.67595,0.663415 2.46502,-2.461601 2.46499,-2.461609 4.22143,4.221442 4.22145,4.221439 -2.46398,2.467402 -2.46401,2.467397 0.93091,0.93091 0.93091,0.930907 0.82621,-0.81595 0.82621,-0.815949 5.60388,5.602397 5.6039,5.6023983 -3.06456,3.0645814 -3.06459,3.06457608 -5.6043,-5.60280758 -5.6043,-5.6028052 0.8204,-0.829064 0.82042,-0.829065 -0.93761,-0.929263 -0.9376,-0.929262 -1.62105,1.626092 -1.62105,1.626093 0.4146,1.0266483 c 0.71594,1.772944 0.67969,3.718729 -0.086,4.6144542 -0.19026,0.2225792 -0.27831,0.7001172 -0.34454,1.8686502 -0.28752,5.0716009 -3.43006,9.662054 -8.27667,12.0900019 -2.18416,1.0941704 -5.25343,1.6223924 -7.89776,1.3592044 z m 3.51814,-1.4088744 c 2.2262,-0.3389429 4.07985,-1.0902111 5.90714,-2.3941381 1.14141,-0.8144949 2.82223,-2.6044208 3.48551,-3.7117597 1.15877,-1.93459283 1.96871,-4.4833409 1.96871,-6.195169 v -0.7218143 l -0.87127,-0.024122 c -1.76728,-0.048989 -4.25466,-1.2693245 -6.64207,-3.2587062 l -1.18465,-0.9871602 -1.81753,1.7977369 c -1.65317,1.6351673 -1.81864,1.8477452 -1.82972,2.3507261 -0.0159,0.7146007 -0.59754,1.25359 -1.35308,1.25359 -1.01965,0 -1.73003,-1.1975116 -1.2464,-2.1011629 0.20913,-0.3907711 1.00671,-0.7832825 1.38864,-0.6833997 0.24709,0.064617 0.69141,-0.293815 2.14236,-1.7282644 l 1.83062,-1.809781 -0.86654,-1.0618371 c -2.00133,-2.452366 -3.01103,-4.48797 -3.24294,-6.537908 l -0.10308,-0.911137 -0.91311,0.09879 c -5.43935,0.588488 -9.95232,4.332586 -11.54398,9.5772441 -0.36959,1.2177959 -0.40902,1.5723156 -0.41576,3.7372891 -0.005,1.8145247 0.0539,2.6104844 0.24669,3.2975689 1.53856,5.4831153 5.77554,9.2605544 11.29536,10.0702773 1.31053,0.1922441 2.21922,0.1785292 3.7651,-0.05683 z M 681.3363,3.7886899 c -2.92521,-0.6366327 -5.51511,-3.11273184 -6.26431,-5.9890346 -0.29104,-1.1174729 -0.29411,-3.1936848 -0.006,-4.2986697 0.54822,-2.1047004 2.28256,-4.2964906 4.1874,-5.2919176 1.5521,-0.811074 3.91962,-1.223472 4.3801,-0.762973 0.51279,0.512772 -0.10412,1.166035 -1.10112,1.166035 -1.34196,0 -3.11055,0.83672 -4.32205,2.0447903 -2.7351,2.7273449 -2.76693,7.190529 -0.0705,9.88692516 2.76034,2.76033944 7.15002,2.82253534 9.87581,0.13992921 1.31691,-1.29602281 1.93551,-2.56470297 2.16114,-4.43220087 0.0556,-0.4606684 0.16841,-0.921658 0.25056,-1.0244389 0.20466,-0.2560502 0.78351,-0.2351516 1.00891,0.036444 0.44352,0.53443 -0.26191,3.4050891 -1.19356,4.85692867 -0.60981,0.95031783 -2.11905,2.35485983 -3.0984,2.88348483 -1.65997,0.8959887 -3.90348,1.1991282 -5.80761,0.784719 z m 15.27598,-9.349051 c 0.59587,-0.2077257 0.81468,-0.6178248 0.81997,-1.5367595 0.022,-3.8240994 -6.04094,-10.4725794 -10.64038,-11.6680404 -0.93255,-0.24239 -1.96061,-0.133586 -2.34206,0.247879 -0.12677,0.12676 -0.26176,0.555883 -0.29996,0.953605 -0.14896,1.550324 1.2573,4.471732 3.22199,6.693365 l 0.49464,0.559357 0.94996,-0.912188 c 0.52247,-0.501704 1.00253,-0.912189 1.06682,-0.912189 0.0643,0 0.30684,0.182006 0.53904,0.404456 l 0.42217,0.404456 -1.00624,1.01398 c -0.61108,0.6157963 -0.94975,1.0645032 -0.86243,1.1426492 1.92481,1.7228902 3.61849,2.7989649 5.31468,3.3766617 1.22015,0.4155752 1.66846,0.4605168 2.3218,0.232768 z"
         id="path2011" />
    </clipPath>
    <clipPath
       clipPathUnits="userSpaceOnUse"
       id="clipPath2132">
      <path
         inkscape:connector-curvature="0"
         sodipodi:nodetypes="ssssssssscsssssssss"
         id="path2134"
         d="m 68.678436,236.12951 c 1.949558,-6.09341 8.872474,-9.27208 14.541484,-6.67672 2.258335,1.03389 3.414146,1.99719 4.691499,3.91005 1.004022,1.50352 1.288328,2.3359 1.871422,5.47921 0.07807,0.42091 0.481893,0.65586 1.572397,0.9149 4.548569,1.08049 9.332632,4.95949 11.497732,9.32259 1.59914,3.22258 2.15945,5.93293 1.96942,9.52642 -0.17447,3.29849 -1.18681,6.48635 -2.85391,8.98704 -1.35242,2.02861 -3.928533,4.50731 -5.929855,5.7056 l -1.648494,0.98703 -0.04789,3.34082 c -0.04622,3.2263 -0.08388,3.41627 -1.098222,5.54053 -1.667954,3.49311 -4.462589,5.92381 -8.040952,6.99384 -1.098066,0.32834 -1.187238,0.43296 -1.361897,1.59766 -0.267769,1.78564 -0.861264,3.05167 -2.044539,4.36139 -1.454457,1.60991 -2.950178,2.29931 -5.325338,2.45446 -2.562513,0.16743 -4.388612,-0.56475 -6.177034,-2.47674 -2.264198,-2.42062 -2.153999,-0.80288 -2.136796,-31.36768 0.01415,-25.15404 0.05011,-27.1288 0.520944,-28.6004 z"
         style="fill:#000000;stroke-width:0.99999797"
         clip-path="none" />
    </clipPath>
    <clipPath
       clipPathUnits="userSpaceOnUse"
       id="clipPath2163">
      <path
         inkscape:connector-curvature="0"
         style="fill:#000000;stroke-width:0.99999797"
         d="m 335.28839,-86.873257 -1.96215,-0.596329 0.59634,-1.962145 0.59632,-1.962134 1.96215,0.596329 1.96212,0.596331 -0.59631,1.962142 -0.59635,1.962142 z m -4.52226,-1.361544 -1.96199,-0.596289 0.5964,-1.962306 0.59639,-1.9623 1.84304,0.560816 c 1.01367,0.308446 1.88052,0.630586 1.92632,0.715854 0.0458,0.08527 -0.16904,0.984276 -0.47744,1.997781 l -0.56073,1.842733 z m 5.88375,-3.16054 -1.96215,-0.596339 0.59635,-1.962134 0.59631,-1.962143 1.96215,0.596337 1.96213,0.596331 -0.59632,1.962142 -0.59635,1.962134 z m -10.52499,1.763183 -1.84275,-0.560723 0.59635,-1.962156 0.59632,-1.96216 1.89709,0.57726 1.89709,0.57726 -0.566,1.900129 c -0.31131,1.045077 -0.6041,1.920605 -0.65069,1.945626 -0.0466,0.02503 -0.9139,-0.20684 -1.92741,-0.515236 z m 5.88359,-3.160588 -1.84274,-0.560726 0.59629,-1.961991 0.59629,-1.961989 1.96231,0.596381 1.96228,0.596384 -0.56081,1.843051 c -0.30845,1.013674 -0.63058,1.880521 -0.71586,1.926328 -0.0853,0.0458 -0.98427,-0.169042 -1.99776,-0.477438 z m -18.09184,9.412139 c -1.09725,-0.05644 -3.29372,-0.724434 -4.00809,-1.218932 -1.05016,-0.72693 -1.39727,-1.713019 -1.05778,-3.00494 0.11351,-0.432011 -0.005,-1.294299 -0.41018,-2.971845 -0.69345,-2.874748 -0.64773,-3.095296 0.77719,-3.74769 2.2734,-1.04089 6.5015,-0.301376 9.17442,1.604658 1.17221,0.835869 2.28529,2.419424 2.15461,3.06532 -0.0402,0.198511 -0.84749,1.065551 -1.81261,1.946674 -1.23229,1.125051 -1.83213,1.796995 -2.05515,2.302307 -0.17325,0.392464 -0.42431,0.875072 -0.55795,1.072475 -0.39243,0.579612 -1.35578,0.995638 -2.20446,0.951973 z m 9.35612,-7.205699 c -0.70998,-1.32166 -2.91206,-3.016888 -5.42311,-4.174866 -3.64694,-1.681805 -8.12398,-2.163257 -11.01794,-1.184841 l -1.19504,0.40404 1.39525,-4.562027 c 1.60213,-5.23846 1.70699,-5.4128 3.64622,-6.06257 4.46165,-1.49493 12.36956,1.02873 14.90628,4.75707 0.93224,1.37016 0.88377,1.882727 -0.64952,6.867011 -1.35012,4.388824 -1.38507,4.471999 -1.66214,3.956183 z m 4.21362,-3.567936 -1.84274,-0.560726 0.59634,-1.96216 0.59635,-1.962156 1.89709,0.577258 1.89706,0.577257 -0.566,1.900137 c -0.31128,1.045072 -0.6041,1.920602 -0.65066,1.945624 -0.0466,0.02503 -0.91393,-0.206838 -1.92744,-0.515234 z m -3.11293,-10.593288 c -0.46966,-0.51311 -2.9877,-1.78494 -4.69577,-2.37177 -1.83399,-0.6301 -4.40743,-1.07682 -6.08904,-1.05699 l -1.12567,0.0133 0.62558,-1.3156 c 1.34509,-2.82873 2.51772,-3.78213 4.73234,-3.84756 1.49611,-0.0442 4.05714,0.68174 5.28894,1.49921 1.21213,0.80443 2.05674,2.10217 2.1372,3.28382 0.0679,0.99695 -0.26919,3.91984 -0.46411,4.02455 -0.0737,0.0396 -0.25797,-0.0634 -0.40947,-0.22894 z m -21.15261,8.219301 -1.89897,-0.577837 0.59004,-1.959837 0.59008,-1.959837 1.90577,0.57378 1.90576,0.573783 -0.59687,1.963894 -0.59685,1.963886 z m -4.58534,-1.380381 -1.96231,-0.59639 0.56084,-1.84305 c 0.30842,-1.01367 0.63058,-1.88052 0.71583,-1.92632 0.0853,-0.0458 0.98428,0.16904 1.99779,0.47743 l 1.84274,0.56073 -0.59629,1.96199 -0.59629,1.961991 z m 5.94683,-3.14171 -1.89897,-0.57782 0.59007,-1.95985 0.59005,-1.95983 1.90577,0.57378 1.90579,0.57378 -0.59687,1.96389 -0.59687,1.96389 z m -10.46874,1.780264 -1.96215,-0.596336 0.59634,-1.962138 0.59632,-1.96213 1.96215,0.59633 1.96215,0.59633 -0.59635,1.96213 -0.59631,1.962151 z m 6.00257,-3.124744 c -1.01367,-0.30845 -1.88052,-0.63058 -1.92632,-0.71585 -0.0458,-0.0853 0.16904,-0.98428 0.47741,-1.99778 l 0.56073,-1.84274 1.96202,0.59629 1.96196,0.59629 -0.59637,1.96231 -0.59637,1.9623 z m -4.64108,-1.39734 -1.96215,-0.59633 0.59634,-1.96214 0.59635,-1.96214 1.96212,0.59633 1.96215,0.59633 -0.59632,1.96214 -0.59634,1.96214 z"
         id="path2165" />
    </clipPath>
    <clipPath
       clipPathUnits="userSpaceOnUse"
       id="clipPath2184">
      <path
         inkscape:connector-curvature="0"
         style="fill:#000000;stroke-width:0.99999899"
         d="m 432.68537,-7.2680166 v 3.3656032 h 2.00573 2.00579 l -0.0844,5.7526555 c -0.0791,5.4009629 -0.0325,5.8079868 0.76593,6.657739 0.90199,0.960115 1.13982,2.8060939 0.41895,3.2516159 -0.26304,0.16256 0.10797,0.710895 0.95029,1.405395 1.09018,0.898615 1.3816,1.426408 1.3816,2.50222 0,1.790888 0.13655,1.969836 2.77808,3.639762 2.92662,1.850177 4.7933,3.645589 4.63203,4.455248 -0.0708,0.355318 -0.16938,0.824211 -0.21916,1.041986 -0.14481,0.633792 0.48089,2.965876 0.85846,3.199234 0.18963,0.117207 0.37594,1.04894 0.41396,2.070516 l 0.0691,1.857411 0.15605,-1.774022 c 0.0857,-0.975713 0.29739,-1.955698 0.47015,-2.177745 0.52092,-0.669479 0.93908,-2.697437 0.84381,-4.092132 -0.0882,-1.291627 -0.0654,-1.31069 1.41962,-1.18786 1.15638,0.09564 1.74267,-0.09564 2.50729,-0.81808 0.54889,-0.518602 2.06703,-1.426621 3.37368,-2.017823 2.9115,-1.317323 3.41546,-1.893197 3.52521,-4.028318 0.0473,-0.919475 0.26253,-1.730642 0.47841,-1.802596 0.22671,-0.07559 0.32677,0.431766 0.23689,1.2016 -0.13128,1.124707 0.0412,1.480685 1.10598,2.283492 1.93395,1.457992 3.27488,2.875251 4.27468,4.517972 0.74993,1.232169 0.89761,1.990918 0.83886,4.309646 -0.0393,1.547806 -0.24542,3.033962 -0.45828,3.302572 -0.27745,0.350171 -0.10993,0.593704 0.592,0.860563 1.35095,0.513636 1.54777,1.305456 0.6594,2.652978 -1.00437,1.523474 -0.96236,1.92349 0.38255,3.643401 0.88514,1.131988 1.14489,1.881111 1.15175,3.321803 0.0106,2.077203 0.38877,3.080772 0.86943,2.303068 0.16135,-0.261112 0.24039,-1.267816 0.17557,-2.237118 -0.0999,-1.492772 0.0678,-1.973815 1.09579,-3.144618 1.15987,-1.320992 1.24695,-1.352105 1.96524,-0.702069 0.41337,0.374101 0.72542,0.959265 0.69344,1.300363 -0.0321,0.341098 -0.0249,1.065626 0.0152,1.610062 0.0677,0.911658 0.0996,0.927303 0.40394,0.197975 0.18178,-0.435547 0.24826,-1.15606 0.14767,-1.601136 -0.11128,-0.492863 0.13565,-1.097345 0.63155,-1.546194 0.92923,-0.840933 1.03558,-1.846415 0.31941,-3.019434 -0.41887,-0.686072 -0.3824,-0.89413 0.23726,-1.353863 0.58997,-0.437673 0.68092,-0.846912 0.46813,-2.106338 -0.14525,-0.859719 -0.14014,-2.223485 0.0106,-3.030592 0.24302,-1.295415 0.34397,-1.398779 0.86112,-0.881621 0.50512,0.505133 0.67545,0.508927 1.23633,0.02754 2.35379,-2.020227 3.58826,-2.920422 4.00492,-2.920422 0.55352,0 0.49089,5.276323 -0.0766,6.437984 -0.26501,0.542708 -0.11791,0.781168 0.66561,1.079072 1.12665,0.428347 1.27765,1.395161 0.39928,2.556446 -0.87039,1.150767 -0.70653,2.387425 0.50751,3.830504 0.62812,0.746527 1.10553,1.806677 1.12812,2.505087 0.10632,3.281424 0.15689,3.548828 0.58978,3.115896 0.2371,-0.237086 0.44121,-1.29725 0.4536,-2.355923 0.0178,-1.530019 0.25428,-2.191649 1.15271,-3.225483 1.32569,-1.525525 1.42116,-2.560185 0.3605,-3.908576 -0.91106,-1.158244 -0.68082,-2.035642 0.6688,-2.548787 0.74603,-0.283621 0.877,-0.495034 0.55045,-0.888461 -0.26419,-0.318373 -0.37495,-1.947481 -0.28889,-4.249937 0.0767,-2.053513 0.16112,-5.827263 0.18744,-8.386112 l 0.0479,-4.652452 h 1.10099 c 0.87033,0 1.21139,-0.269724 1.62745,-1.286848 l 0.52638,-1.2868491 0.31285,0.9898831 c 0.19366,0.61269 0.32797,0.734756 0.35235,0.320336 0.0894,-1.519237 2.0193,-1.0685799 2.0193,0.47157 0,0.382217 0.26321,0.913434 0.58496,1.180481 0.50085,0.41562 0.50758,0.63351 0.0467,1.513041 -0.49,0.935185 -0.45687,1.091573 0.36834,1.740685 0.49867,0.392253 1.27945,0.713187 1.7351,0.713187 0.47243,0 0.82843,0.255239 0.82843,0.593929 0,0.326663 0.17816,0.593932 0.39596,0.593932 0.21775,0 0.39594,-0.161497 0.39594,-0.358884 0,-0.680268 1.65058,0.07426 1.98773,0.908645 0.26523,0.656368 0.34321,0.690137 0.36291,0.157086 0.0358,-0.962231 1.59696,-1.758267 2.04918,-1.044694 0.26382,0.416338 0.34085,0.381302 0.34558,-0.157096 0.004,-0.464884 0.31739,-0.692918 0.95206,-0.692918 0.52028,0 1.34464,-0.322757 1.83182,-0.71724 0.76927,-0.622951 0.81902,-0.824063 0.37833,-1.529763 -0.43118,-0.690409 -0.37389,-1.088411 0.38124,-2.648362 0.99938,-2.0644381 1.98895,-2.42728 2.03723,-0.746969 0.017,0.598879 0.12044,0.821602 0.22934,0.49494 0.10888,-0.32666 0.28502,-0.861198 0.39134,-1.18786 0.16176,-0.4972001 0.25731,-0.4797241 0.58688,0.107317 0.5147,0.916893 1.1369,0.505944 1.1369,-0.7509161 0,-0.849472 0.15718,-0.974725 1.08884,-0.867524 l 1.08888,0.1252882 0.20217,7.7912299 c 0.11113,4.285174 0.3339,7.922995 0.49492,8.084046 0.16101,0.161052 0.3133,0.04039 0.33832,-0.268115 0.15859,-1.953749 0.71001,3.421578 0.75483,7.358135 0.0294,2.613293 0.14389,4.528718 0.2538,4.2565 0.10978,-0.272218 0.39275,-0.494941 0.62865,-0.494941 0.23591,0 0.3384,0.09058 0.22767,0.20129 -0.11068,0.110712 0.0136,1.340619 0.27448,2.733135 0.2617,1.392521 0.42997,3.114732 0.3739,3.827147 -0.0561,0.712411 0.13235,1.529529 0.41864,1.815811 0.34678,0.346756 0.4787,1.315104 0.39527,2.900751 -0.0688,1.309129 0.0306,2.380234 0.22091,2.380234 0.19031,0 0.23915,0.534537 0.10856,1.18786 -0.15131,0.756711 -0.076,1.18786 0.20788,1.18786 0.36948,0 0.66947,-1.7491 0.49232,-2.870662 -0.0258,-0.163331 0.13758,-0.296964 0.36304,-0.296964 0.25909,0 0.28167,-0.254867 0.0615,-0.692919 -0.42189,-0.83914 -0.1349,-4.058522 0.36188,-4.058522 0.19477,0 0.32579,-0.579083 0.29118,-1.286849 -0.0351,-0.707767 0.0827,-2.177745 0.26095,-3.266616 0.17811,-1.088872 0.33135,-2.38067 0.34037,-2.870662 0.017,-0.930542 0.60395,-1.256712 0.71224,-0.395953 0.11611,0.922995 0.63073,-5.029756 0.72729,-8.41401 0.0528,-1.851082 0.2086,-3.869318 0.34616,-4.484968 l 0.25011,-1.119362 2.66525,1.911269 2.66528,1.91127 0.007,2.276732 c 0.004,1.252203 0.18555,2.276732 0.40341,2.276732 0.35866,0 0.48096,-0.856829 0.49731,-3.481905 0.004,-0.583043 0.60353,-1.398181 1.67568,-2.276734 0.91856,-0.752686 1.78535,-1.368522 1.92626,-1.368522 0.14091,0 0.25622,0.534536 0.25622,1.18786 0,1.81527 0.72987,1.413466 0.86815,-0.47791 0.1051,-1.43725 0.3568,-1.844641 1.83531,-2.96965 1.79835,-1.368354 2.54462,-1.638676 2.23345,-0.808939 -0.1021,0.272217 -0.027,1.296748 0.16694,2.276731 l 0.3527,1.781791 0.0436,-2.593494 c 0.0239,-1.431222 0.25633,-2.806432 0.51853,-3.068639 0.36953,-0.369557 0.36953,-0.475144 0,-0.475144 -0.26135,0 -0.47517,-0.178181 -0.47517,-0.395954 0,-0.217774 0.22275,-0.351407 0.49498,-0.296966 0.37344,0.07469 0.55599,-1.601883 0.74364,-6.830195 0.13697,-3.811051 0.27044,-7.3405996 0.29698,-7.8434482 0.0263,-0.5028432 0.22644,-0.8041401 0.44419,-0.6695493 0.21777,0.1345962 0.39596,1.3187548 0.39596,2.6314586 0,2.256387 0.0612,2.409843 1.12035,2.8096419 0.61621,0.2325949 1.28437,0.7962 1.48487,1.2524581 0.20038,0.4562549 0.76379,0.8862878 1.25185,0.9556269 0.48806,0.06933 1.12049,0.458851 1.40539,0.865582 0.50423,0.719942 0.5306,0.719225 0.99667,-0.02709 0.2633,-0.421627 0.80599,-0.7665931 1.20594,-0.7665931 0.82311,0 2.17919,-1.310431 1.77469,-1.7149339 -0.14556,-0.1456561 1.2794,-0.264835 3.16676,-0.264835 2.02379,0 3.43158,0.1624439 3.43158,0.395954 0,0.2177759 0.35012,0.3959551 0.77799,0.3959551 0.42792,0 0.97325,0.3648868 1.21194,0.81086 0.23868,0.4459709 0.85494,0.9709099 1.36943,1.1665269 0.51448,0.195617 1.01398,0.76617 1.10985,1.267894 l 0.17436,0.91223 0.0539,-0.890894 c 0.0295,-0.489993 0.19648,-0.890897 0.37071,-0.890897 0.55955,0 1.26706,0.928595 1.26706,1.663004 0,1.157198 0.67268,0.813681 0.93047,-0.475144 0.27898,-1.394963 1.31242,-1.591466 1.56172,-0.296963 l 0.17162,0.890894 0.0538,-0.900697 c 0.0339,-0.561126 0.41806,-1.03913 1.01978,-1.267894 0.53113,-0.201959 1.16106,-0.732089 1.39976,-1.1780599 0.23864,-0.4459732 0.69493,-0.81086 1.01395,-0.81086 0.31899,0 0.58,-0.1781792 0.58,-0.3959551 0,-0.2377249 1.59155,-0.395954 3.98288,-0.395954 2.72007,0 3.90017,0.1338951 3.72195,0.4222991 -0.31194,0.5046768 0.92872,1.527111 1.87455,1.544878 0.36882,0.0069 0.92571,0.3769789 1.23769,0.8223439 0.46942,0.670279 0.60677,0.706533 0.7971,0.210489 0.12648,-0.329597 0.86135,-0.863071 1.63306,-1.1855001 0.77164,-0.322434 1.40303,-0.8625999 1.40303,-1.200372 0,-0.337775 0.27284,-0.6141379 0.60635,-0.6141379 0.33351,0 0.70894,-0.2672659 0.83427,-0.593929 0.12547,-0.326662 0.5477,-0.5939279 0.93858,-0.5939279 0.57256,0 0.76329,0.4534799 0.98152,2.3334869 0.14886,1.283414 0.22631,2.931573 0.17194,3.662569 -0.14208,1.910847 0.94121,4.134847 2.37548,4.87653 0.6705,0.346721 1.21901,0.8376 1.21901,1.090843 0,0.253248 0.35763,0.07658 0.79472,-0.392607 1.33374,-1.431592 1.87652,-0.758905 2.04269,2.531602 0.10182,2.015991 0.33114,3.075354 0.71737,3.31405 0.31219,0.192967 0.62889,0.941311 0.70384,1.662987 0.0748,0.721675 0.47742,1.786541 0.89466,2.36637 0.50948,0.708131 0.7463,1.66502 0.7212,2.914701 -0.0239,1.188155 0.15995,1.982464 0.50864,2.198066 0.90109,0.557093 1.67403,-0.611935 1.60293,-2.42451 -0.0436,-1.115672 0.18888,-1.963092 0.72626,-2.64628 0.43485,-0.552765 0.79059,-1.531977 0.79059,-2.176025 0,-1.434608 1.27802,-3.225079 1.87553,-2.627559 0.52821,0.528136 1.68805,-1.066012 1.68805,-2.320029 0,-0.895676 0.0379,-0.901782 5.57066,-0.901782 h 5.57061 l -0.094,2.586411 c -0.0567,1.565984 0.0887,2.768855 0.36863,3.048842 0.25436,0.254337 0.46243,0.694063 0.46243,0.97717 0,0.283106 0.13371,0.515126 0.29698,0.515601 0.16332,4.76e-4 0.83151,0.798363 1.48481,1.773085 0.65335,0.974723 1.27695,1.774924 1.38585,1.778224 0.10888,0.0033 0.64338,-0.6481 1.18786,-1.447554 0.54442,-0.799454 1.18443,-1.648265 1.4223,-1.886244 0.23783,-0.237981 0.65288,-0.8447 0.92239,-1.348266 0.46663,-0.871899 0.52595,-0.883068 1.243,-0.234148 1.19496,1.081465 1.95564,0.138802 1.95564,-2.423546 0,-3.030017 0.57707,-3.339575 6.22537,-3.339575 h 4.46536 l 0.0743,1.880779 c 0.0409,1.034429 0.0854,2.348614 0.099,2.920411 0.0159,0.669534 0.68263,1.743408 1.87269,3.016581 l 1.84799,1.976947 1.89037,-1.919235 c 2.12362,-2.156023 1.94772,-1.243246 2.14672,-11.142098 0.0902,-4.485854 0.21235,-5.444361 0.69374,-5.444361 1.04179,0 3.46345,-2.505249 3.32884,-3.4438431 -0.0676,-0.471924 0.18874,-1.4491829 0.56981,-2.171692 0.48546,-0.9206839 0.66335,-2.0385747 0.59454,-3.7370277 -0.0767,-1.8924217 0.0375,-2.47527762 0.51909,-2.66025576 0.54711,-0.20996275 0.61722,0.71781987 0.61677,8.16470066 v 8.4015839 l 6.38423,-0.126904 6.38428,-0.126905 -0.18914,3.69048 c -0.10409,2.029766 -0.32309,4.002297 -0.48681,4.383401 -0.22543,0.524923 -0.11004,0.692919 0.47527,0.692919 1.15803,0 2.01722,1.194903 2.28516,3.177972 0.13171,0.974295 0.43981,2.561932 0.68489,3.528081 l 0.44562,1.75664 0.49168,-1.360685 c 0.27036,-0.748377 0.50518,-1.880372 0.52177,-2.515548 0.0168,-0.635175 0.14737,-1.037623 0.29065,-0.89433 0.5558,0.555936 1.32316,-0.694748 1.32316,-2.156798 0,-1.29735 0.12932,-1.535332 0.83425,-1.535332 0.6462,0 0.76587,-0.156192 0.53068,-0.692919 -0.48381,-1.104336 -0.68842,-8.834294 -0.38426,-14.513466 l 0.2794,-5.2174807 4.14522,0.5528972 c 3.40836,0.4546044 4.31376,0.7214264 5.09329,1.5009545 0.52143,0.5214361 1.2044,0.948063 1.51765,0.948063 0.45318,0 1.05024,0.771144 1.05024,1.356469 0,0.178467 -7.42245,5.37474 -7.67742,5.37474 -0.13291,0 -0.26516,-0.311814 -0.29374,-0.69292 -0.0291,-0.381103 -0.16396,-0.06929 -0.30051,0.69292 -0.13687,0.762209 -0.12781,1.440344 0.0199,1.506967 0.14737,0.06662 1.30707,-0.400839 2.57725,-1.038802 1.27006,-0.637961 3.83338,-1.812216 5.6962,-2.609461 l 3.38694,-1.449533 6.90788,3.22929 c 3.79927,1.776108 8.03301,3.739967 9.40836,4.364132 l 2.50051,1.134851 -0.1248,-1.053306 c -0.0869,-0.73405 -0.37155,-1.070811 -0.93887,-1.111049 -0.64104,-0.04548 -8.14924,-5.150379 -12.16224,-8.2692139 -0.98479,-0.7653682 -0.34242,-2.2790891 1.4046,-3.3098341 1.19461,-0.7048579 1.396,-1.0616327 1.65307,-2.9285353 0.16091,-1.1692467 0.32724,-2.87515566 0.36941,-3.7909209 0.0423,-0.9157653 0.18842,-1.7766718 0.32489,-1.9131333 0.13671,-0.1364668 1.86684,-0.1214861 3.84529,0.033301 2.6463,0.2070152 3.59724,0.4249049 3.59724,0.8242591 0,0.9641945 1.57871,0.6077188 1.97975,-0.4470215 0.31543,-0.829572 0.63448,-0.9898857 1.97,-0.9898857 h 1.59361 V -7.268014 -24.656537 H 571.26871 432.68502 v 17.388523 z m 223.3177,0.7843308 v 1.3782622 l 1.7503,-0.239903 c 1.52618,-0.2091795 1.8811,-0.1090956 2.77171,0.781484 1.27177,1.2718124 1.36004,3.29175 0.20773,4.75665533 -0.74646,0.94895197 -1.04081,1.03020017 -3.56358,0.98361237 l -2.74996,-0.050779 v -4.4937972 c 0,-4.2298249 0.0466,-4.4937971 0.7919,-4.4937971 0.64027,0 0.7919,0.2639722 0.7919,1.3782624 z m 0.55753,3.5711554 c -0.60085,0.9169797 -0.60085,1.0627915 0,1.97976594 1.09578,1.6723413 3.40203,0.90159417 3.40203,-1.13695164 0,-1.9543183 -2.30034,-2.5242017 -3.40203,-0.8428143 z m 7.7575,-4.128479 c 0,1.0146903 -1.31053,0.8995781 -1.50929,-0.1325615 -0.0914,-0.4751441 0.12166,-0.6883718 0.68836,-0.6883718 0.56663,0 0.82093,0.2542911 0.82093,0.8209386 z m -16.82804,4.7224104 c 0,2.74873504 -0.0642,2.97877967 -0.86211,3.09240763 -0.47416,0.067519 -1.07508,0.37933047 -1.33534,0.69291727 -0.62355,0.7513029 -3.69247,0.7513029 -4.31604,0 -0.26021,-0.3135868 -0.86108,-0.6254009 -1.33532,-0.69291727 -0.76783,-0.10933642 -0.87519,-0.39962932 -0.98151,-2.65474983 -0.0657,-1.3925947 -0.0247,-2.7795458 0.0917,-3.0821074 0.16598,-0.4324006 1.12349,-0.5260552 4.4749,-0.4376605 l 4.26378,0.1124638 z m -4.9494,-2.4637022 c -1.9285,0.6212179 -2.62566,2.9442702 -1.25571,4.18412353 1.64101,1.48506128 4.42338,0.35961109 4.42338,-1.78921573 0,-1.4620107 -1.81165,-2.8317031 -3.16767,-2.3949078 z m 1.60985,0.8938155 c 1.12415,0.6016492 1.04072,2.6811023 -0.12499,3.11442891 -0.96437,0.35848925 -1.90744,0.14924881 -2.36965,-0.52578001 -0.52656,-0.7690115 -0.31565,-2.1599313 0.3899,-2.570861 0.88625,-0.5161994 1.16903,-0.5185913 2.10476,-0.01778 z m 24.36118,-0.1408669 0.82795,0.9719522 0.63272,-0.965663 c 0.34802,-0.5311167 1.08903,-1.0528962 1.64677,-1.1595153 1.25843,-0.2405565 1.25694,-0.1733682 -0.0334,1.5181448 -1.11541,1.4623521 -1.06458,1.8744591 0.49555,4.01851017 0.62533,0.85937463 0.61316,0.89089973 -0.34435,0.89089973 -0.64027,0 -1.24002,-0.37761864 -1.68964,-1.06377583 l -0.69701,-1.06377846 -0.84823,1.06377846 c -0.48381,0.60673192 -1.24417,1.06377583 -1.76977,1.06377583 -0.86329,0 -0.88498,-0.056362 -0.34263,-0.89089973 1.71335,-2.63653857 1.68908,-2.46693527 0.56343,-3.94277587 -0.57824,-0.7580895 -1.05133,-1.4784864 -1.05133,-1.600872 0,-0.5459995 1.86115,0.2814002 2.60976,1.160219 z m 10.24582,-0.6043877 c 0.96689,0.7605554 1.01121,0.8930931 0.41119,1.2288944 -0.44355,0.2482268 -0.82138,0.2275946 -1.10961,-0.06059 -0.85746,-0.8574961 -3.05026,-0.2607813 -3.05026,0.830072 0,0.1742149 1.17015,0.3167565 2.60038,0.3167565 2.51277,0 2.59129,0.03002 2.33023,0.8908971 -0.78496,2.5884505 -3.74982,3.5480202 -5.59797,1.81176346 -1.35645,-1.27429948 -1.28958,-3.93547596 0.12692,-5.04964176 1.34159,-1.0552826 2.92198,-1.0435457 4.28914,0.031829 z m -3.35272,4.09692745 c 0.27114,0.32665723 0.80565,0.59392873 1.18789,0.59392873 0.38219,0 0.91675,-0.2672715 1.18783,-0.59392873 0.42497,-0.51207985 0.2613,-0.59393135 -1.18783,-0.59393135 -1.44913,0 -1.61286,0.081859 -1.18789,0.59393135 z M 691.5638,-4.5431443 c 1.02748,1.0274776 0.2856,2.4843317 -1.58217,3.1069148 -0.91237,0.3041253 -1.72934,0.76454794 -1.81556,1.02314904 -0.19953,0.59854571 1.57507,0.62573165 2.16762,0.0332184 0.27951,-0.27949525 0.67018,-0.30648804 1.08401,-0.0748877 0.5851,0.32742452 0.57218,0.42982357 -0.13461,1.06938763 -0.93353,0.84488603 -3.28303,0.99354483 -4.16277,0.26339006 -0.75111,-0.62338214 -0.82611,-2.14484213 -0.134,-2.71649033 0.27223,-0.2248138 1.10648,-0.5666317 1.85384,-0.7595976 1.76182,-0.4548743 2.0802,-1.3043509 0.48888,-1.3043509 -0.65332,0 -1.25041,0.1877378 -1.32693,0.4171898 -0.0858,0.2575533 -0.47112,0.2943701 -1.0067,0.096232 -0.94075,-0.3480092 -0.7791,-0.8948844 0.48588,-1.6439807 0.96682,-0.572553 3.29994,-0.2926106 4.0824,0.4898338 z m -27.2457,2.6204889 c 0,2.90365924 -0.066,3.1676314 -0.79189,3.1676314 -0.72591,0 -0.7919,-0.26397216 -0.7919,-3.1676314 0,-2.9036565 0.066,-3.1676234 0.7919,-3.1676234 0.72588,0 0.79189,0.2639669 0.79189,3.1676234 z m 18.60983,-1.583809 c 0,1.6596995 1.03671,3.16762867 2.1777,3.16762867 0.32997,0 0.59393,0.35195669 0.59393,0.79190321 0,0.97335972 -1.04586,1.04314092 -2.04753,0.13660173 -0.67377,-0.6097614 -0.7241,-0.6097614 -0.7241,0 0,0.39132934 -0.31902,0.65529619 -0.79195,0.65529619 -0.72588,0 -0.79187,-0.26396685 -0.79187,-3.1676261 0,-2.9036565 0.066,-3.167626 0.79187,-3.167626 0.65997,0 0.79195,0.2639695 0.79195,1.5838117 z M 473.25432,30.967831 c -0.14347,0.232263 0.0531,0.651945 0.43693,0.932624 0.42106,0.307886 0.59877,0.768646 0.44803,1.161516 -0.35178,0.916718 -0.84794,0.809843 -1.44833,-0.311985 -0.54456,-1.017509 -0.33315,-2.204455 0.39262,-2.204455 0.23745,0 0.31427,0.190036 0.17075,0.4223 z M 705.52849,14.938367 c 0.0191,0.461267 0.11278,0.555088 0.23926,0.239223 0.11427,-0.285827 0.10028,-0.627335 -0.0315,-0.75891 -0.1316,-0.131574 -0.22522,0.102285 -0.20799,0.519687 z m -29.9257,1.748795 c -0.13472,0.217773 -0.056,0.395954 0.17457,0.395954 0.23069,0 0.41936,-0.178181 0.41936,-0.395954 0,-0.217773 -0.0785,-0.395954 -0.17465,-0.395954 -0.0961,0 -0.28473,0.178181 -0.41928,0.395954 z M 501.7132,20.052767 c 0,0.326661 0.12948,0.59393 0.28765,0.59393 0.15819,0 0.39016,-0.267269 0.51552,-0.59393 0.1307,-0.340516 0.007,-0.59393 -0.28762,-0.59393 -0.28352,0 -0.51555,0.267269 -0.51555,0.59393 z m -34.97584,3.365603 c 0,0.217775 0.18871,0.395955 0.41931,0.395955 0.23064,0 0.3092,-0.17818 0.17463,-0.395955 -0.13459,-0.217774 -0.32327,-0.395953 -0.41934,-0.395953 -0.0961,0 -0.1746,0.178179 -0.1746,0.395953 z m 11.69753,3.932174 c -0.12527,0.202728 -0.0466,0.480511 0.17463,0.617299 0.22132,0.136781 0.40239,-0.02908 0.40239,-0.368594 0,-0.695502 -0.2376,-0.797908 -0.57702,-0.248705 z m 163.31382,4.382848 c 0,0.653324 0.17824,1.18786 0.39599,1.18786 0.2178,0 0.39596,-0.534536 0.39596,-1.18786 0,-0.653323 -0.17816,-1.187861 -0.39596,-1.187861 -0.21775,0 -0.39599,0.534538 -0.39599,1.187861 z m -42.30442,3.959535 c 0,0.544436 0.0899,0.767159 0.1997,0.494942 0.10991,-0.272218 0.10991,-0.717667 0,-0.989885 -0.10978,-0.272218 -0.1997,-0.04949 -0.1997,0.494943 z m -124.39191,5.915932 v 1.409205 c 0,0.108886 0.11654,0.242523 0.25895,0.296966 0.36387,0.139101 0.40079,-2.509668 0.0381,-2.733818 -0.16337,-0.10097 -0.29704,0.36147 -0.29704,1.027647 z m -4.87978,2.162403 c -0.11713,0.305368 -0.10302,0.665356 0.0318,0.799969 0.46326,0.463265 0.36022,1.825321 -0.17148,2.26658 -0.44007,0.365247 -0.41535,0.527727 0.14225,0.935519 0.54738,0.400242 0.78482,0.383599 1.25649,-0.08805 0.40502,-0.405016 0.44845,-0.663836 0.14303,-0.852582 -0.24119,-0.149068 -0.42579,-0.801062 -0.41017,-1.448893 0.0425,-1.765691 -0.0364,-2.167753 -0.42522,-2.167753 -0.19448,0 -0.44949,0.24985 -0.56665,0.555221 z m 15.9245,-0.06028 c -0.023,0.272218 -0.009,0.993908 0.0321,1.603755 0.0407,0.609847 -0.10091,1.322563 -0.31431,1.583813 -0.62362,0.763105 0.40826,1.484437 1.24662,0.87143 0.57508,-0.42051 0.59002,-0.55675 0.10555,-0.958864 -0.39256,-0.32581 -0.47282,-0.794402 -0.26329,-1.536953 0.33202,-1.176618 0.16003,-2.058122 -0.4016,-2.058122 -0.19961,0 -0.38184,0.222724 -0.40495,0.494941 z"
         id="path2186"
         sodipodi:nodetypes="ccccccscssccssccssssscsscscsssscscssccsccssscssscssccscsssscccsscscssssssssscscsssccsccssccscccsscsssssssscscccscsccccscsssssssccssssccssscsssscssssssccssssccssssscsssssscscsssssssssscsssssccssssssssssscccscsssscsccccccsssscscssssscssssscccsscsscsssscccsssscccccccscsssscsssssssssssscssssscsccscssssssssccsssssscsssssccsscssssssssssssssssscssssssssssssssssssssssssssssssccscccssscssssssssssssssssssssccssssssscscsscssscccsssscc" />
    </clipPath>
    <linearGradient
       gradientTransform="translate(1363.6458,251.25612)"
       gradientUnits="userSpaceOnUse"
       y2="101.88756"
       x2="633.96796"
       y1="48.56728"
       x1="633.96796"
       id="linearGradient1503-1"
       xlink:href="#linearGradient1501"
       inkscape:collect="always" />
    <linearGradient
       gradientTransform="translate(-1.7412222,89.85675)"
       gradientUnits="userSpaceOnUse"
       y2="55.285988"
       x2="66.170692"
       y1="114.18774"
       x1="119.33715"
       id="linearGradient1263"
       xlink:href="#linearGradient1261"
       inkscape:collect="always" />
    <linearGradient
       y2="28.155254"
       x2="109.31452"
       y1="183.55737"
       x1="134.58957"
       gradientTransform="translate(-0.12945599,-0.53857979)"
       gradientUnits="userSpaceOnUse"
       id="linearGradient7338"
       xlink:href="#linearGradient7344"
       inkscape:collect="always" />
    <linearGradient
       y2="44.786205"
       x2="109.6925"
       y1="225.8907"
       x1="254.40802"
       gradientTransform="translate(254.10815,66.189337)"
       gradientUnits="userSpaceOnUse"
       id="linearGradient7353"
       xlink:href="#linearGradient7344"
       inkscape:collect="always" />
    <clipPath
       id="clipPath1957"
       clipPathUnits="userSpaceOnUse">
      <rect
         style="opacity:1;fill:#1a1a1a;fill-opacity:1;stroke:none;stroke-width:0.26499999;stroke-linecap:round;stroke-linejoin:round;stroke-miterlimit:4;stroke-dasharray:none;stroke-dashoffset:0;stroke-opacity:1"
         id="rect1959"
         width="1001.2241"
         height="563.28723"
         x="1955.5892"
         y="-0.32815185" />
    </clipPath>
    <clipPath
       id="clipPath1196"
       clipPathUnits="userSpaceOnUse">
      <circle
         style="opacity:1;fill:#181818;fill-opacity:1;stroke:none;stroke-width:0.26499999;stroke-linecap:round;stroke-linejoin:round;stroke-miterlimit:4;stroke-dasharray:none;stroke-dashoffset:0;stroke-opacity:1"
         id="circle1198"
         cx="2455.656"
         cy="281.31546"
         r="311.29007" />
    </clipPath>
    <clipPath
       id="clipPath1196-6"
       clipPathUnits="userSpaceOnUse">
      <circle
         style="opacity:1;fill:#181818;fill-opacity:1;stroke:none;stroke-width:0.26499999;stroke-linecap:round;stroke-linejoin:round;stroke-miterlimit:4;stroke-dasharray:none;stroke-dashoffset:0;stroke-opacity:1"
         id="circle1198-0"
         cx="2455.656"
         cy="281.31546"
         r="311.29007" />
    </clipPath>
    <linearGradient
       gradientUnits="userSpaceOnUse"
       y2="176.32794"
       x2="457.04944"
       y1="14.047856"
       x1="457.0629"
       id="linearGradient1578-9-8"
       xlink:href="#linearGradient1570"
       inkscape:collect="always"
       gradientTransform="translate(570.7488,-0.00191885)" />
    <clipPath
       id="clipPath1196-6-9"
       clipPathUnits="userSpaceOnUse">
      <circle
         style="opacity:1;fill:#181818;fill-opacity:1;stroke:none;stroke-width:0.26499999;stroke-linecap:round;stroke-linejoin:round;stroke-miterlimit:4;stroke-dasharray:none;stroke-dashoffset:0;stroke-opacity:1"
         id="circle1198-0-1"
         cx="2455.656"
         cy="281.31546"
         r="311.29007" />
    </clipPath>
    <clipPath
       id="clipPath1196-3"
       clipPathUnits="userSpaceOnUse">
      <circle
         style="opacity:1;fill:#181818;fill-opacity:1;stroke:none;stroke-width:0.26499999;stroke-linecap:round;stroke-linejoin:round;stroke-miterlimit:4;stroke-dasharray:none;stroke-dashoffset:0;stroke-opacity:1"
         id="circle1198-08"
         cx="2455.656"
         cy="281.31546"
         r="311.29007" />
    </clipPath>
    <clipPath
       id="clipPath1196-6-9-6"
       clipPathUnits="userSpaceOnUse">
      <circle
         style="opacity:1;fill:#181818;fill-opacity:1;stroke:none;stroke-width:0.26499999;stroke-linecap:round;stroke-linejoin:round;stroke-miterlimit:4;stroke-dasharray:none;stroke-dashoffset:0;stroke-opacity:1"
         id="circle1198-0-1-6"
         cx="2455.656"
         cy="281.31546"
         r="311.29007" />
    </clipPath>
    <clipPath
       id="clipPath1196-6-9-5"
       clipPathUnits="userSpaceOnUse">
      <circle
         style="opacity:1;fill:#181818;fill-opacity:1;stroke:none;stroke-width:0.26499999;stroke-linecap:round;stroke-linejoin:round;stroke-miterlimit:4;stroke-dasharray:none;stroke-dashoffset:0;stroke-opacity:1"
         id="circle1198-0-1-8"
         cx="2455.656"
         cy="281.31546"
         r="311.29007" />
    </clipPath>
    <linearGradient
       gradientUnits="userSpaceOnUse"
       y2="176.32794"
       x2="457.04944"
       y1="14.047856"
       x1="457.0629"
       id="linearGradient1578-9-8-9"
       xlink:href="#linearGradient1570"
       inkscape:collect="always"
       gradientTransform="translate(1305.3164,-76.76706)" />
    <clipPath
       id="clipPath1196-6-9-1"
       clipPathUnits="userSpaceOnUse">
      <circle
         style="opacity:1;fill:#181818;fill-opacity:1;stroke:none;stroke-width:0.26499999;stroke-linecap:round;stroke-linejoin:round;stroke-miterlimit:4;stroke-dasharray:none;stroke-dashoffset:0;stroke-opacity:1"
         id="circle1198-0-1-9"
         cx="2455.656"
         cy="281.31546"
         r="311.29007" />
    </clipPath>
    <clipPath
       id="clipPath1196-6-9-1-9"
       clipPathUnits="userSpaceOnUse">
      <circle
         style="opacity:1;fill:#181818;fill-opacity:1;stroke:none;stroke-width:0.26499999;stroke-linecap:round;stroke-linejoin:round;stroke-miterlimit:4;stroke-dasharray:none;stroke-dashoffset:0;stroke-opacity:1"
         id="circle1198-0-1-9-6"
         cx="2455.656"
         cy="281.31546"
         r="311.29007" />
    </clipPath>
    <clipPath
       id="clipPath1196-6-9-5-3"
       clipPathUnits="userSpaceOnUse">
      <circle
         style="opacity:1;fill:#181818;fill-opacity:1;stroke:none;stroke-width:0.26499999;stroke-linecap:round;stroke-linejoin:round;stroke-miterlimit:4;stroke-dasharray:none;stroke-dashoffset:0;stroke-opacity:1"
         id="circle1198-0-1-8-6"
         cx="2455.656"
         cy="281.31546"
         r="311.29007" />
    </clipPath>
    <clipPath
       id="clipPath1196-6-9-5-3-3"
       clipPathUnits="userSpaceOnUse">
      <circle
         style="opacity:1;fill:#181818;fill-opacity:1;stroke:none;stroke-width:0.26499999;stroke-linecap:round;stroke-linejoin:round;stroke-miterlimit:4;stroke-dasharray:none;stroke-dashoffset:0;stroke-opacity:1"
         id="circle1198-0-1-8-6-0"
         cx="2455.656"
         cy="281.31546"
         r="311.29007" />
    </clipPath>
    <clipPath
       id="clipPath1196-6-9-1-9-3"
       clipPathUnits="userSpaceOnUse">
      <circle
         style="opacity:1;fill:#181818;fill-opacity:1;stroke:none;stroke-width:0.26499999;stroke-linecap:round;stroke-linejoin:round;stroke-miterlimit:4;stroke-dasharray:none;stroke-dashoffset:0;stroke-opacity:1"
         id="circle1198-0-1-9-6-7"
         cx="2455.656"
         cy="281.31546"
         r="311.29007" />
    </clipPath>
    <clipPath
       id="clipPath2290"
       clipPathUnits="userSpaceOnUse">
      <path
         inkscape:connector-curvature="0"
         id="path2292"
         d="m 1648.5487,91.819783 v 59.379027 h -2.7145 v -19.17217 h -13.9852 v 19.17217 h -51.3142 v -36.88478 h -13.9852 v 36.88478 h -57.7908 v -34.88542 h -13.9852 v 34.88542 H 1470.695 V 0.37485136 h 233.526 l 10e-5,150.82395864 h -13.4204 v -36.57783 h -13.9852 v 36.57783 h -14.281 V 91.819783 Z"
         style="display:inline;opacity:1;fill:#b51818;fill-opacity:1;stroke:none;stroke-width:0.26499999;stroke-linecap:round;stroke-linejoin:round;stroke-miterlimit:4;stroke-dasharray:none;stroke-dashoffset:0;stroke-opacity:1"
         sodipodi:nodetypes="ccccccccccccccccccccccccc" />
    </clipPath>
    <clipPath
       id="clipPath2469"
       clipPathUnits="userSpaceOnUse">
      <path
         sodipodi:nodetypes="ccccccccccccccccccccccccc"
         style="opacity:1;fill:#b51818;fill-opacity:1;stroke:none;stroke-width:0.26499999;stroke-linecap:round;stroke-linejoin:round;stroke-miterlimit:4;stroke-dasharray:none;stroke-dashoffset:0;stroke-opacity:1"
         d="m 1414.4242,97.600722 v 53.392188 h -2.7145 v -13.18532 h -13.9852 v 13.18532 h -51.3142 v -30.89795 h -13.9852 v 30.89795 h -57.7908 v -28.89857 h -13.9852 v 28.89857 h -24.0785 v 86.93558 h 233.526 v -86.93558 h -13.4204 v -30.59098 h -13.9852 v 30.59098 H 1428.41 V 97.600722 Z"
         id="path2471"
         inkscape:connector-curvature="0" />
    </clipPath>
  </defs>
  <sodipodi:namedview
     id="base"
     pagecolor="#ffffff"
     bordercolor="#666666"
     borderopacity="1.0"
     inkscape:pageopacity="0.0"
     inkscape:pageshadow="2"
     inkscape:zoom="0.70710678"
     inkscape:cx="813.72329"
     inkscape:cy="167.65487"
     inkscape:document-units="mm"
     inkscape:current-layer="layer1"
     showgrid="false"
     fit-margin-top="0"
     fit-margin-left="0"
     fit-margin-right="0"
     fit-margin-bottom="0"
     inkscape:window-width="1920"
     inkscape:window-height="1057"
     inkscape:window-x="-8"
     inkscape:window-y="-8"
     inkscape:window-maximized="1" />
  <metadata
     id="metadata5">
    <rdf:RDF>
      <cc:Work
         rdf:about="">
        <dc:format>image/svg+xml</dc:format>
        <dc:type
           rdf:resource="http://purl.org/dc/dcmitype/StillImage" />
        <dc:title />
      </cc:Work>
    </rdf:RDF>
  </metadata>
  <g
     inkscape:label="Layer 1"
     inkscape:groupmode="layer"
     id="layer1"
     transform="translate(-64.762276,193.40933)">
    <rect
       style="opacity:0.99299999;fill:#74c8c8;fill-opacity:0;stroke:none;stroke-width:0.76499999;stroke-linecap:round;stroke-linejoin:round;stroke-miterlimit:4;stroke-dasharray:none;stroke-opacity:1"
       id="rect866"
       width="62.603775"
       height="284.62543"
       x="130.80556"
       y="64.762276"
       transform="rotate(-90)"
       inkscape:export-xdpi="600"
       inkscape:export-ydpi="600" />
    <text
       xml:space="preserve"
       style="font-style:normal;font-weight:normal;font-size:44.98239136px;line-height:1.25;font-family:sans-serif;letter-spacing:0px;word-spacing:0px;fill:#c8c8c8;fill-opacity:1;stroke:none;stroke-width:0.26458332;stroke-opacity:1"
       x="250.56467"
       y="-148.42355"
       id="text914"
       inkscape:export-xdpi="600"
       inkscape:export-ydpi="600"><tspan
         sodipodi:role="line"
         id="tspan912"
         x="250.56467"
         y="-148.42355"
         style="font-style:normal;font-variant:normal;font-weight:normal;font-stretch:normal;font-family:'Libre Franklin';-inkscape-font-specification:'Libre Franklin';fill:#c8c8c8;fill-opacity:1;stroke:none;stroke-width:0.26458332;stroke-opacity:1">Logger </tspan></text>
    <g
       transform="matrix(4.7880135,0,0,4.7880135,-195.27662,-225.88563)"
       style="display:inline;stroke-width:0.20885488"
       inkscape:label="Map"
       id="layer3" />
    <g
       transform="matrix(4.7880135,0,0,4.7880135,-195.27662,-225.88563)"
       style="display:inline;opacity:1;stroke-width:0.20885488"
       inkscape:label="Gradient"
       id="layer8" />
    <g
       transform="matrix(4.7880135,0,0,4.7880135,-195.27662,-225.88563)"
       style="display:inline;stroke-width:0.20885488"
       inkscape:label="Extra"
       id="layer4" />
    <g
       transform="matrix(4.7880135,0,0,4.7880135,-195.27662,-225.88563)"
       style="display:inline;stroke-width:0.20885488"
       inkscape:label="Geometry"
       id="layer9" />
    <g
       id="text1172-1-3-2"
       style="font-style:normal;font-weight:normal;font-size:15.57759953px;line-height:1.25;font-family:sans-serif;letter-spacing:0px;word-spacing:0px;opacity:0.99600405;fill:#3c3c41;fill-opacity:1;stroke:#ffffff;stroke-width:0.18510273;stroke-opacity:1"
       aria-label="bik"
       transform="matrix(1.4293791,0,0,1.4293791,-817.37986,-207.49721)" />
    <g
       id="text1172-1-1-7-6"
       style="font-style:normal;font-weight:normal;font-size:15.57759953px;line-height:1.25;font-family:sans-serif;letter-spacing:0px;word-spacing:0px;opacity:0.99600405;fill:#3c3c41;fill-opacity:1;stroke:#ffffff;stroke-width:0.18510273;stroke-opacity:1"
       aria-label="AI"
       transform="matrix(1.4293791,0,0,1.4293791,-817.37986,-207.49721)" />
    <g
       style="fill:#c8c8c8;fill-opacity:1;stroke:none;stroke-width:0.6200611"
       id="g1515"
       transform="matrix(1.6127445,0,0,1.6127445,-975.09283,-296.01314)"
       inkscape:export-xdpi="600"
       inkscape:export-ydpi="600">
      <path
         sodipodi:nodetypes="cccccccscccccccscsccccccccccccccccccccccccccccccscccccccccssccccccccccscscsccccccccccccccccccscccscscscccccccccccccccccccccccccscscscsscscs"
         inkscape:connector-curvature="0"
         id="path1908-0-2-9-1-0-4-5"
         transform="matrix(0.18510368,0,0,0.18510368,617.15059,9.8559449)"
         d="m 405.74609,304.29102 c -3.65514,-0.0612 -7.36265,0.51676 -10.97851,1.76757 -10.5227,3.64015 -18.45666,12.74155 -20.91992,23.99805 -0.58103,2.65493 -0.58103,9.4134 0,12.06836 1.42979,6.53392 4.31417,11.86753 8.90625,16.47461 4.56727,4.58214 9.51468,6.92863 16.1582,8.44531 h 2.17187 43.44532 c 18.10666,0 19.9253,0.003 21.4707,0 v -0.004 h 116.29102 v 80.37304 c 0.0216,7.60508 11.41734,7.60508 11.4375,0 v -16.29297 -19.81445 c 25.375,-0.002 -19.34951,-0.002 18.55664,-0.002 h 0.15429 c 15.23806,-0.0823 27.7168,-12.60713 27.7168,-27.86328 0,-15.25355 -12.4745,-27.72391 -27.70898,-27.81055 h -0.16211 v 0.002 c -9.46225,-0.0148 -6.21492,-0.0123 -7.4336,-0.004 -1.99275,-0.0173 -5.11866,-0.0408 -11.12304,-0.0801 v -29.04688 c -6e-4,-0.0373 -0.002,-0.0742 -0.004,-0.11133 -9.7e-4,-0.041 -0.002,-0.0822 -0.004,-0.12304 -0.087,-3.12586 -2.66813,-5.60224 -5.79492,-5.5586 -0.2685,0.006 -0.53796,0.0322 -0.80273,0.0762 h -21.55664 l -6.48829,-4.4336 c -0.94303,-0.66483 -2.06501,-1.02961 -3.21874,-1.04492 -5.70859,-0.0753 -7.99207,7.34337 -3.22852,10.49024 l 7.95703,5.43164 c 1.1896,0.84133 2.65484,1.19709 4.09766,0.99414 h 17.60547 v 20.5332 H 465.03125 c -0.027,-1.5e-4 -0.0538,-1.5e-4 -0.0781,0 l -19.00195,-0.10547 -42.89062,-0.11523 -1.75586,-0.47461 c -7.01018,-1.8911 -11.26246,-6.65675 -12.31641,-13.80469 -0.83866,-5.68773 1.16444,-10.63226 5.89649,-14.55274 1.81374,-1.5027 4.49215,-2.92629 6.41211,-3.41015 1.87316,-0.47206 5.15795,-0.42304 7.26953,0.10742 3.70246,0.92998 7.58711,3.36052 9.61132,6.01367 2.14626,2.81327 2.95607,5.61073 3.13672,10.83594 0.12156,3.51309 0.16575,3.81985 0.58789,4.11523 0.37493,0.26261 1.66562,0.31836 7.30078,0.31836 h 6.84766 l 0.48047,-0.60351 c 0.46677,-0.58626 0.4791,-0.71893 0.36133,-4.76953 -0.0881,-3.03455 -0.25036,-4.76614 -0.58985,-6.36328 -1.37436,-6.46455 -4.22792,-11.7738 -8.78515,-16.33789 -5.94932,-5.95836 -13.73026,-9.18386 -21.77149,-9.31836 z m 206.53907,65.63281 h 0.004 0.01 c 7.53996,0.005 13.49609,5.97623 13.49609,13.51758 0,7.54463 -5.96122,13.50586 -13.50586,13.50586 h -0.004 v 0.0664 c -20.89324,-0.0122 8.34595,0.0945 -18.55664,-0.084 v -27.00391 c 22.72743,-0.002 10.9331,-0.002 18.55664,-0.002 z m -238.56055,18.66992 v 62.29492 h 6.73828 v -6.08203 h 0.16211 c 2.84905,4.71188 7.05609,7.06836 12.61719,7.06836 5.94461,0 10.62843,-2.11131 14.05273,-6.33008 3.4243,-4.24616 5.13672,-9.88732 5.13672,-16.92773 0,-6.32813 -1.53534,-11.36805 -4.60352,-15.1211 -3.04078,-3.78045 -7.25759,-5.67187 -12.65429,-5.67187 -6.38297,0 -11.23415,2.79432 -14.54883,8.38281 h -0.16211 v -27.61328 z m 69.85547,0 v 62.29492 h 6.73828 v -20.21679 h 0.16602 l 18.57226,20.21679 h 9.45117 l -21.03906,-21.77734 19.51758,-20.29883 h -8.83399 l -17.66796,19.27148 h -0.16602 v -39.49023 z m -16.92969,0.7793 c -1.20543,0 -2.23283,0.42618 -3.08203,1.27539 -0.84925,0.82183 -1.27344,1.86093 -1.27344,3.12109 0,1.26014 0.42446,2.30316 1.27344,3.125 0.8492,0.82184 1.8766,1.23242 3.08203,1.23242 1.23272,0 2.27189,-0.42614 3.12109,-1.27539 0.87665,-0.84924 1.31446,-1.87668 1.31446,-3.08203 0,-1.26016 -0.4377,-2.29926 -1.31446,-3.12109 -0.8492,-0.84923 -1.88837,-1.27539 -3.12109,-1.27539 z m 80.91406,3.57617 -21.44922,58.92578 h 14.37891 l 4.15234,-13.10742 h 20.95704 l 4.1914,13.10742 h 14.46289 l -20.95703,-58.92578 z m 44.05078,0 V 451.875 h 13.27149 v -58.92578 z m -36.5039,12.41016 c 0.32738,0.16434 0.65731,1.93085 1.12305,3.41015 l 6.32617,19.80469 h -15.07813 l 6.41016,-19.96875 c 0.54802,-1.69846 0.89115,-3.41045 1.21875,-3.24609 z m -91.91406,3.45312 v 42.07617 h 6.73828 V 408.8125 Z m -29.70704,4.68359 c 3.69831,0 6.62688,1.3271 8.79102,3.98438 2.16414,2.65727 3.24609,6.32919 3.24609,11.01367 0,5.56108 -1.1637,9.9024 -3.49218,13.02539 -2.30115,3.12298 -5.4905,4.68555 -9.57227,4.68555 -3.47913,0 -6.35515,-1.20452 -8.62891,-3.61524 -2.24636,-2.43811 -3.37109,-5.39979 -3.37109,-8.8789 v -5.875 c 0,-4.1092 1.19091,-7.52034 3.57422,-10.23242 2.38337,-2.73944 5.5357,-4.10743 9.45312,-4.10743 z"
         style="display:inline;opacity:0.99800002;fill:#c8c8c8;fill-opacity:1;stroke:none;stroke-width:3.34979701;stroke-opacity:1" />
      <path
         inkscape:connector-curvature="0"
         id="path1508"
         d="m 730.82017,84.412109 a 1.0495117,1.0495117 0 0 0 -0.86132,1.585938 l 8.14843,14.113283 a 1.0495117,1.0495117 0 0 0 0.90821,0.52344 h 3.50195 a 1.0495117,1.0495117 0 1 0 0,-2.097661 h -2.89648 l -7.84375,-13.58789 a 1.0495117,1.0495117 0 0 0 -0.95704,-0.53711 z"
         style="color:#000000;font-style:normal;font-variant:normal;font-weight:normal;font-stretch:normal;font-size:medium;line-height:normal;font-family:sans-serif;font-variant-ligatures:normal;font-variant-position:normal;font-variant-caps:normal;font-variant-numeric:normal;font-variant-alternates:normal;font-feature-settings:normal;text-indent:0;text-align:start;text-decoration:none;text-decoration-line:none;text-decoration-style:solid;text-decoration-color:#000000;letter-spacing:normal;word-spacing:normal;text-transform:none;writing-mode:lr-tb;direction:ltr;text-orientation:mixed;dominant-baseline:auto;baseline-shift:baseline;text-anchor:start;white-space:normal;shape-padding:0;clip-rule:nonzero;display:inline;overflow:visible;visibility:visible;opacity:1;isolation:auto;mix-blend-mode:normal;color-interpolation:sRGB;color-interpolation-filters:linearRGB;solid-color:#000000;solid-opacity:1;vector-effect:none;fill:#c8c8c8;fill-opacity:1;fill-rule:nonzero;stroke:none;stroke-width:7.50273848;stroke-linecap:round;stroke-linejoin:round;stroke-miterlimit:4;stroke-dasharray:none;stroke-dashoffset:0;stroke-opacity:1;color-rendering:auto;image-rendering:auto;shape-rendering:auto;text-rendering:auto;enable-background:accumulate" />
    </g>
    <path
       style="fill:#c8c8c8;fill-opacity:1;stroke-width:1"
       d="m 85.693189,-136.62928 c -1.474356,-0.21044 -2.826795,-0.84373 -3.659927,-1.71377 -0.430646,-0.44973 -0.427872,-0.45426 0.152094,-0.24809 1.266107,0.45009 3.262747,0.583 4.354564,0.28988 0.598022,-0.16056 1.323401,-0.49549 1.322406,-0.6106 -2.91e-4,-0.0387 -0.553622,-0.25988 -1.229524,-0.49151 -3.558181,-1.2194 -6.763619,-3.25383 -9.575037,-6.07712 -2.114375,-2.1233 -3.424795,-3.92246 -4.713896,-6.472 -1.557484,-3.08034 -2.513757,-6.59459 -2.660089,-9.77567 -0.04467,-0.97106 -0.03273,-1.13891 0.07028,-0.9892 0.06824,0.0992 0.413439,0.6199 0.767104,1.1572 0.675498,1.02623 1.675099,2.27874 1.818614,2.27874 0.04643,0 -0.110479,-0.32966 -0.348691,-0.73257 -0.579769,-0.98064 -1.372602,-2.57142 -1.918176,-3.84873 l -0.446387,-1.0451 0.105033,-1.05061 c 0.131185,-1.31222 0.329465,-2.45978 0.629166,-3.64134 0.290241,-1.14428 0.70622,-2.4297 0.82542,-2.55066 0.05616,-0.057 0.09028,0.29974 0.09028,0.94402 0,1.25513 0.130047,2.49235 0.438321,4.16999 1.379101,7.50517 6.028832,14.26207 12.539751,18.22252 2.775998,1.68858 5.339053,2.67872 8.993462,3.47426 0.215017,0.0468 0.207549,0.0624 -0.155961,0.32574 -0.217871,0.15782 -0.47572,0.47058 -0.600544,0.72844 -0.255353,0.52749 -0.238624,0.97274 0.103798,2.76253 0.229894,1.20162 0.214163,1.95924 -0.05234,2.52085 -0.766573,1.61544 -4.090026,2.76671 -6.849718,2.3728 z m 7.700563,-1.41402 c 0.07523,-0.12173 2.639416,-1.71375 3.880366,-2.40919 1.59235,-0.89238 1.99374,-1.03011 3.012752,-1.03376 0.86864,-0.003 0.90831,0.006 1.13326,0.26754 0.12821,0.14892 0.27643,0.244 0.32937,0.21128 0.14436,-0.0892 0.11588,-0.7788 -0.0484,-1.17196 -0.0796,-0.19041 -0.14465,-0.41028 -0.14465,-0.4886 0,-0.26847 -0.31311,-0.8022 -0.5836,-0.9948 -0.19826,-0.14118 -0.71226,-0.25764 -1.924392,-0.43603 -1.50157,-0.22099 -3.10823,-0.61704 -3.2166,-0.79292 -0.0235,-0.0381 1.11388,-0.0702 2.52752,-0.0712 2.865002,-0.002 3.774042,-0.10156 6.138282,-0.67187 4.94958,-1.19395 9.18108,-3.58212 12.89795,-7.27932 0.72927,-0.72542 1.32596,-1.29064 1.32596,-1.25605 0,0.16996 -0.5662,1.43205 -1.13833,2.53739 -0.61897,1.19584 -0.66748,1.25889 -1.49865,1.94811 -0.96074,0.79667 -1.88155,1.43452 -2.95382,2.04617 -0.3965,0.22617 -0.66452,0.41123 -0.5956,0.41123 0.21606,0 1.47717,-0.45015 2.25674,-0.80553 0.41105,-0.18739 0.74736,-0.3233 0.74736,-0.30203 0,0.12674 -1.50685,1.88814 -2.34131,2.73681 -3.95206,4.01941 -8.85172,6.50962 -14.534512,7.38705 -1.23014,0.18994 -5.364774,0.32148 -5.269705,0.16766 z m 2.280276,-9.09515 c -5.550979,-0.62041 -10.591108,-2.97307 -14.543615,-6.78875 -1.938944,-1.87182 -3.197834,-3.48438 -4.499696,-5.76382 -1.511418,-2.64636 -2.675881,-6.10242 -3.04617,-9.04086 l -0.115447,-0.91611 0.357923,-1.06077 c 1.043589,-3.09285 2.939001,-6.11369 5.356792,-8.53744 2.663588,-2.67015 5.783068,-4.54146 9.385361,-5.63008 2.164382,-0.65407 4.064287,-0.92428 6.498932,-0.92428 3.57271,0 6.792972,0.74498 9.872812,2.28399 5.99982,2.99813 10.25315,8.26841 11.854,14.68826 0.48957,1.96329 0.62017,3.1125 0.61917,5.44848 -0.001,2.84059 -0.2877,4.64387 -1.14472,7.20542 -0.64121,1.91648 -0.89249,2.35675 -1.7522,3.07003 -1.22486,1.01622 -1.57963,1.28594 -2.49771,1.89892 -2.9541,1.97238 -6.19867,3.24693 -9.8844,3.88285 -1.38468,0.23891 -5.039192,0.34307 -6.461032,0.18416 z"
       id="path1788"
       inkscape:connector-curvature="0"
       inkscape:export-xdpi="600"
       inkscape:export-ydpi="600" />
    <path
       style="fill:none;stroke:#c8c8c8;stroke-width:0.26499999;stroke-linecap:round;stroke-linejoin:miter;stroke-miterlimit:4;stroke-dasharray:none;stroke-opacity:1"
       d="m 237.24875,-189.14618 v 55.29792"
       id="path1790"
       inkscape:connector-curvature="0"
       inkscape:export-xdpi="600"
       inkscape:export-ydpi="600" />
  </g>
</svg>
